<svg xmlns="http://www.w3.org/2000/svg" viewBox="0 0 230.75 221.25"><title>Asset 3</title><g id="Layer_2" data-name="Layer 2"><g id="Layer_1-2" data-name="Layer 1"><path d="M133.5,0c.12.16.21.42.36.46a14.79,14.79,0,0,1,2.34,1.29,2.3,2.3,0,0,1,.49.32,23.27,23.27,0,0,1,3.36,3.86,3.59,3.59,0,0,1,.7,2.08c0,.8.05,1.59,0,2.38-.16,2.06.36,4.09.25,6.16a2.55,2.55,0,0,0-.5,1.53,1.7,1.7,0,0,1-.14.69,1.34,1.34,0,0,0,0,1,9.58,9.58,0,0,1,.33,4c-.32.79-.09,1.67-.7,2.6-.69.62-1.53,1.45-2.46,2.19a2.68,2.68,0,0,1-1.95.72,10.41,10.41,0,0,0-1.25,0c-.45.33-.88.68-1.34,1a19.83,19.83,0,0,1-5.58,2.49c-1.19.37-2.4.66-3.59,1a2.85,2.85,0,0,0-1,.55c-.94.78-1.83,1.6-2.75,2.41l-.45-1c-1.12.37-2.24.77-3.38,1.11-2.15.63-4.24,1.43-6.38,2.07-1.3.39-2.58.85-3.89,1.2-1.16.31-2.29.67-3.42,1.08a3.16,3.16,0,0,1-2,0c-.52-.17-1-.06-1.51-.26-.61-.26-1.17-.61-1.76-.93H94.1c.25,1.24.76,2.4.94,3.67.21,1.44.47,2.88.76,4.31A9.8,9.8,0,0,1,96,51.26a30.36,30.36,0,0,1-1.07,5c-.32,1-.66,2.07-.92,3.13a6.53,6.53,0,0,1-1.6,2.83c-.22.25-.47.47-.72.72H90.43a14.6,14.6,0,0,0-2.22-1.28,5,5,0,0,1-3.08-2.54l-1.79.62L82.75,61l-3.12,6.71c-.17.38-.28.8-.45,1.19a9.3,9.3,0,0,1-3,3.92l.28,1.19c1.55,1.19,3.27,2,4.73,3.22a43.2,43.2,0,0,1,3.39,3.23,16.59,16.59,0,0,1,1.86,2.6,8.68,8.68,0,0,1,1.35,3.06c.16.83.47,1.64.7,2.46a22.66,22.66,0,0,1,.65,2.71c.12,1,.72,1.87.6,2.9A2.45,2.45,0,0,1,90,95.87a2.4,2.4,0,0,1-.69,1.72,9.58,9.58,0,0,0-.8,1,54,54,0,0,1,0,5.4c-.4,4-.11,8.1-.23,12.15a6.62,6.62,0,0,1-.24,1.14c-.07.35.1.7-.18,1.06-.14.18,0,.6.07.91a6.3,6.3,0,0,0,.18.72l.82.48A6.58,6.58,0,0,0,90.6,120c.63-.36,1.36-.26,2-.64a10,10,0,0,1,2.09-.65c.67-.21,1.32-.46,2-.68,1.32-.45,2.64-.89,4-1.29,1-.29,1.92-.57,2.86-.94a21.12,21.12,0,0,1,2.85-.94c1.37-.32,2.65-.89,4-1.25.82-.22,1.63-.52,2.45-.72a3.27,3.27,0,0,0,1.93-1.23c.26-1.55-.4-2.91-.78-4.31s-1.07-3-.94-4.62c.06-.64-.34-1.22-.26-1.9a2.84,2.84,0,0,0-.2-1.78c-.16-.29,0-.74,0-1.11s-.19-.68-.23-1a3.67,3.67,0,0,0-.24-1.41c-.2-.4,0-.9-.22-1.4a8.73,8.73,0,0,1-.3-2.25c-.07-.55-.18-1.1-.25-1.65s.13-1.13-.24-1.66c-.09-.14,0-.4,0-.61,0-1.54,0-3.09,0-4.63a8.33,8.33,0,0,1,.24-1.27,5.62,5.62,0,0,0-.57-2.64,4.28,4.28,0,0,1-.18-.92,46,46,0,0,1,0-5.12c.17-1.56,0-3.13.26-4.64s.1-2.78.21-4.16c0-.59.19-1.18.23-1.77s-.06-1.26,0-1.87-.3-.91-.27-1.4,0-1,0-1.5a5.76,5.76,0,0,1,.74-2.25L113.88,60c.06-.06.12-.1.11-.12-.18-1.48.38-2.92.27-4.4,0-.29.19-.59.23-.89a6.46,6.46,0,0,0,0-.88,10.63,10.63,0,0,1,2.12-2.47l2.3,2.31c.11.77.27,1.52.32,2.27s0,1.58,0,2.37c0,.51.18,1,.23,1.53s-.11,1.06.26,1.52a8.6,8.6,0,0,0,.28,2.52,9.33,9.33,0,0,0,.4,2.32,5.15,5.15,0,0,1,.08,1c0,.3.2.59.23.9a28.21,28.21,0,0,1,.51,3.54c.39.5,0,1.18.3,1.62s.08,1,.2,1.55c.28,1.08.33,2.2.54,3.28a11.78,11.78,0,0,0,.24,1.52c.19.52.08,1.07.26,1.52s.07,1.07.25,1.52.09,1,.23,1.4c.39,1.17.33,2.41.7,3.58a14,14,0,0,1,.29,2.27c0,.38.18.76.23,1.14a7,7,0,0,0,.22,1c.21.77.16,1.6.3,2.39a39.17,39.17,0,0,1,.26,5.52,7.05,7.05,0,0,0,.28,1.51,13,13,0,0,0,.56,1.39,15,15,0,0,1,1.4,4.92,3.62,3.62,0,0,0,.29.9l1,1h.26c.54,0,1.08,0,1.62,0a5,5,0,0,0,1.39-.26c.67-.26,1.43,0,2-.28s1.4,0,2-.22a10.1,10.1,0,0,1,2.78-.24,11.16,11.16,0,0,0,1.31-.29l1-1.14c.56-4.06.27-8,.32-11.9a25.42,25.42,0,0,0,.28-2.9,11.48,11.48,0,0,1,0-2.87,10.56,10.56,0,0,0,.21-1.77c0-.61.31-1.15.28-1.78a6.48,6.48,0,0,1,.35-1.61c.84.12.62.92.84,1.4a4.44,4.44,0,0,1,.27,1.51c0,.54,0,1.08,0,1.62v1.77a4.8,4.8,0,0,0,2.13,2.54l-1.42-2.93c.78-.38,1.46,0,2.26.15l.78,1.08V96l-1.7,1.68v.85l2.08-.81s.09.07.09.1c-.06,1.6.45,3.16.28,4.76,0,.12-.05.3,0,.37.44.52.15,1.17.32,1.74a3.83,3.83,0,0,0,2.15,2.53c1.09,0,2.3,0,3.5,0a3.68,3.68,0,0,1,2,.52l.95.5a16.63,16.63,0,0,1,2.51-1.11c.11,0,.22-.14.32-.13,1.23.12,2.43-.25,3.64-.25,7.59,0,15.17,0,22.75,0,2.93,0,5.84-.45,8.77-.26,2.58-.53,5.18-.13,7.77-.24.92,0,1.84,0,2.75,0a9,9,0,0,1,2.49,0,10.36,10.36,0,0,0,2.53.19,17.3,17.3,0,0,1,2.5,0,23,23,0,0,1,3.95.71c.14.06.34,0,.49,0a4,4,0,0,1,1.53.55c.78.56,1.66,1,2.52,1.5a4.26,4.26,0,0,1,3.18-.79,12.2,12.2,0,0,1,2.11.64,17.42,17.42,0,0,0,3.19.87l-.27.62a11.63,11.63,0,0,1-4.62-.17c-.35,1.1-1.17,2-1.36,3.14,1.39.35,2.71.72,4,1a16.23,16.23,0,0,0,2.74.63V116l-.47.27c-.12-.07-.29-.27-.45-.25a17.66,17.66,0,0,1-2.9-.26,10.55,10.55,0,0,1-2.15-.23c-.64-.2-1.38.17-2-.27,0,0-.16,0-.24,0-1.34-.08-2.68-.14-4-.26a9,9,0,0,0-1.65-.25,7.66,7.66,0,0,1-1.65-.19,22.27,22.27,0,0,0-3.37,0,1.07,1.07,0,0,0-.33.11,7.72,7.72,0,0,1-3.36.65,10.13,10.13,0,0,0-1.52.22,6.11,6.11,0,0,0-1.49,0c-1.13.4-2.29,0-3.41.24-2,.33-4,0-6,.29-1.61.22-3.19.08-4.78.19-1.3.09-2.6.2-3.9.24a29.46,29.46,0,0,0-4,.05c-2.31.39-4.61,0-6.9.23-4.34.45-8.68.11-13,.23-2.54.53-5.12,0-7.64.29-1.81.22-3.61.14-5.41.21a3.29,3.29,0,0,0-3.09,3,33.17,33.17,0,0,1-.74,4.44,19.82,19.82,0,0,1-2.42,5.37,20.72,20.72,0,0,1-3.66,4.09,15,15,0,0,1-3.52,2.35,19.38,19.38,0,0,0-2.28,1.35c-1.55.47-2.65-.27-3.76-.7q-2.39-.91-4.78-1.74c-.08,0-.12-.11-.21-.19-.41.76.5,1.46,0,2.22h-.54A21.08,21.08,0,0,1,122,131.9a4.53,4.53,0,0,0-.34-.61c-1-1.82-1.68-3.81-2.61-5.68-.33-.65-.6-1.33-1-2a3.15,3.15,0,0,0-1.25-1.12c-1.49-.25-2.87.46-4.31.85-1.08.29-2.16.63-3.25.9s-2.06.67-3.09,1c-1.19.36-2.4.66-3.59,1s-2.41.85-3.64,1.14c-1.55.37-3,.91-4.57,1.37-2.28.69-4.55,1.47-6.79,2.3a9.42,9.42,0,0,0-2.24,1.23c-1.38,1-2.86,1.77-4.28,2.73-.36.89.53,1.71.2,2.62a15,15,0,0,1-1,1.34c-.42.45-.92.82-1.41,1.26-.7-.06-.71-.86-1.17-1.23-.56.34-.59,1-.77,1.7-.82-1.07-1-2.25-1.55-3.3-3.08,2.11-6.14,4.23-9.32,6.42v-2.27c-.62-.18-1,.16-1.38.4a34,34,0,0,1-3.25,2.09,5.91,5.91,0,0,1-3.34.65,12.12,12.12,0,0,1,2.19-2.58c.61-.65,1.16-1.36,1.78-2a35.35,35.35,0,0,1,3.22-2.77c1.84-1.52,3.84-2.81,5.76-4.22a20.57,20.57,0,0,0,3.23-3,7.86,7.86,0,0,0,1.88-3.34c0-.15.14-.29.14-.44a22.7,22.7,0,0,0,0-3.87c-.18-1.1-.13-2.18-.21-3.27a8,8,0,0,1-.25-1.4,2.19,2.19,0,0,0-.21-1.29c-.16-.29,0-.74,0-1.11s-.21-.59-.23-.89c-.09-1.13-1-4.53-1.38-6.3s-1.26-3.17-1.63-4.84c-1-1.55-1.59-3.36-2.63-4.91-.57-.84-1-1.74-1.59-2.59s-1.21-1.66-1.8-2.5a34.72,34.72,0,0,0-3.7-4,29.56,29.56,0,0,0-5-3.89,36.79,36.79,0,0,0-3.23-1.84,22,22,0,0,0-3.08-1.32,30.34,30.34,0,0,1-3-1.15c-1.31-.57-2.65-1.09-4-1.57-1.48-.53-2.91-1.21-4.44-1.65-1.22-.35-2.37-.93-3.55-1.39C34.81,76,33.4,75.54,32,75a4.61,4.61,0,0,1-2.52-2.85,4.34,4.34,0,0,1,.14-2.87,27.59,27.59,0,0,1,1.45-3.9,10.12,10.12,0,0,1,1.76-2.76A5.26,5.26,0,0,1,35.64,61a8.83,8.83,0,0,1,2-.22,23.4,23.4,0,0,1,2.37,0,10.71,10.71,0,0,1,2.81.45.17.17,0,0,0,.11,0c.83-.18,1.59.27,2.39.26a2.26,2.26,0,0,0,.41-1.59c0-.67.16-1.35.24-2s-.18-1.31.25-1.9c0,0,0-.08,0-.12.08-1.3.15-2.6.26-3.9,0-.59.19-1.18.23-1.77a9.12,9.12,0,0,1,0-1.74,13.9,13.9,0,0,0,.24-1.9c.09-.57.37-1.09.5-1.67a7.23,7.23,0,0,1,.74-1.69,9.82,9.82,0,0,1,1.42-2A23.43,23.43,0,0,1,55.33,37c1.39-.8,2.65-1.82,4-2.68a36.45,36.45,0,0,1,3.52-2.07c.76-.37,1.44-.89,2.23-1.25a13.2,13.2,0,0,1,4.64-1.48c.61-.54,1.39-.11,2.09-.38A7.12,7.12,0,0,1,73.9,29a5.05,5.05,0,0,1,1.77.24c.57.15,1.23-.21,1.77.26a7.84,7.84,0,0,1,2.67.49,15.63,15.63,0,0,1,3.5,1.22,5.41,5.41,0,0,0,2.27.58A10.53,10.53,0,0,1,91,33.18a5.34,5.34,0,0,1,2,1.72c.36.64,1.13,1,1.24,2,1-.73,1.32-1.85,2.24-2.56L93.7,32.57a4.19,4.19,0,0,1,.4-.54c1.14-1.07,2.23-2.2,3.45-3.17A48.45,48.45,0,0,1,101.62,26c2.23-1.43,4.5-2.81,6.76-4.2,1.77-1.08,3.39-2.38,5.24-3.32a37.38,37.38,0,0,1,3.62-2.78,37.75,37.75,0,0,1,3.69-2.81,19.4,19.4,0,0,0,1.66-1.41,45.58,45.58,0,0,0,5.54-5.31,29.35,29.35,0,0,0,2.92-3.77A13.89,13.89,0,0,1,132.75,0ZM135,126.25l5-5.49v-1.23a2.26,2.26,0,0,0-1.33-.54c-1.41,0-2.83,0-4.24,0a2.17,2.17,0,0,0-1.65.63,34,34,0,0,0,.22,4,3.81,3.81,0,0,0,1.19,2.38l.26.24ZM113.71,64.19l1.56,1.56h.25l1.22-1.22a56.7,56.7,0,0,0-.57-8.09L114.34,60a2.5,2.5,0,0,0-.33.73C113.88,62,113.8,63.18,113.71,64.19ZM69.58,58.41c.69.36,1.32.73,2,1a3,3,0,0,0,2.27.47c-.51-.94-.58-2-1.62-2.72l-2.92.36Z"/><path d="M0,215.75a2.26,2.26,0,0,0,1.47-1.42,5.69,5.69,0,0,0,1-3.2c.52-.95.14-2,.46-3A3.9,3.9,0,0,1,6.28,205a3.33,3.33,0,0,0,.53-.17,15.21,15.21,0,0,0,.61-1.9c.15-.75.89-1.1,1.08-1.81,1.09-.67,2-1.6,3.35-1.88,1-.21,2-.56,3.06-.72s2.3-.51,3.43-.81a34.25,34.25,0,0,0,3.51-1.15c1.15-.45,2.34-.79,3.49-1.23,2.16-.83,4.28-1.74,6.4-2.67,1.31-.58,2.56-1.27,3.86-1.85a27.08,27.08,0,0,0,3.14-1.45c1.94-1.15,4-2.08,5.89-3.3,1.37-.88,2.8-1.69,4.17-2.57,1.1-.71,2.12-1.55,3.17-2.33,1.75-1.31,3.4-2.76,5.21-4A19.79,19.79,0,0,0,59,175.59c.65-.56,1.26-1.16,1.94-1.67a35.93,35.93,0,0,0,4.55-4.07A23.31,23.31,0,0,0,67.75,167c.6-.84,1.2-1.68,1.86-2.47a5.81,5.81,0,0,1,1.15-.88c1.39,1.13,1.25,2.65,1.24,4-.55,1.76-1.79,2.91-2.61,4.34-.58,1-1.28,2-1.88,3-.7,1.16-1.36,2.35-2,3.54a4.87,4.87,0,0,0-.77,2.81c.05.54,0,1.08,0,1.59a33.17,33.17,0,0,0-3.13,3.61c-.6.77-1.33,1.44-1.93,2.21-.73,1-1.63,1.77-2.32,2.78-.5.73-1.19,1.33-1.74,2-1.13,1.42-2.42,2.69-3.47,4.18-.54.76-1.24,1.4-1.84,2.12s-1.25,1.55-1.82,2.27l.5,2,.69.39a.46.46,0,0,1,0,.2,8,8,0,0,0-1,1.32c-.47,1-1.44,1.35-2.22,1.89-1.24.86-2.62,1.5-3.94,2.24s-2.63,1.48-4,2.2a2.49,2.49,0,0,1-.64.18,10,10,0,0,1-5.29,2.71,18.69,18.69,0,0,1-3.17.5c-.46,0-.92.19-1.39.23s-1-.16-1.35,0c-.49.33-1,.07-1.42.22-1.54.53-3.15.83-4.7,1.31a39.18,39.18,0,0,1-4.14,1.19c-1.45.29-2.88.68-4.31,1-1,.26-2.05.52-3.09.71s-2,.41-3,.62c0,0,0,.08,0,.12H3.5c0-.07,0-.19-.09-.2a3.67,3.67,0,0,1-2.86-1.87c-.17-.24-.37-.45-.55-.68Z"/><path d="M75.85,149.5h.77c0,.07.12.13.13.2.11,1.14-.45,2.16-.58,3.26-.44.39.13,1.08-.42,1.45A14.23,14.23,0,0,1,75.2,157l-1.54-.49C74.42,154.06,75.13,151.78,75.85,149.5Z"/><path d="M142.67,82.5h-.36V75.32c.39-.1.79-.2,1.09.21C144.19,78,143.58,80.26,142.67,82.5Z"/></g></g></svg>