<svg xmlns="http://www.w3.org/2000/svg" viewBox="0 0 150 78"><defs><style>.cls-1{fill:#e3b76d;}</style></defs><title>down_arrowe</title><g id="Layer_2" data-name="Layer 2"><g id="Layer_1-2" data-name="Layer 1"><path class="cls-1" d="M148.9,1.15a3.78,3.78,0,0,0-5.33,0L75,70,6.46,1.15A4,4,0,0,0,5.24.3a3.8,3.8,0,0,0-2.91,0,3.66,3.66,0,0,0-1.23.83A3.58,3.58,0,0,0,.28,2.35a3.76,3.76,0,0,0,0,2.92,3.75,3.75,0,0,0,.84,1.22L71.9,74.85,75,78l3.14-3.15L148.9,6.49a3.78,3.78,0,0,0,.81-4.12A3.72,3.72,0,0,0,148.9,1.15Z"/></g></g></svg>