<svg id="Layer_1" data-name="Layer 1" xmlns="http://www.w3.org/2000/svg" viewBox="0 0 746 976.25"><title>portfo_logo</title><path d="M391.13,319.33c.11.16.2.42.35.46a15.26,15.26,0,0,1,2.35,1.29,2.3,2.3,0,0,1,.49.32,23.21,23.21,0,0,1,3.35,3.86,3.56,3.56,0,0,1,.71,2.09c0,.79.05,1.58,0,2.37-.17,2.06.36,4.09.25,6.16a2.56,2.56,0,0,0-.51,1.53,1.54,1.54,0,0,1-.13.69,1.34,1.34,0,0,0,0,1,9.62,9.62,0,0,1,.34,4c-.33.79-.09,1.66-.7,2.59-.69.62-1.54,1.46-2.46,2.19a2.64,2.64,0,0,1-1.95.72,10.41,10.41,0,0,0-1.25,0c-.45.34-.88.69-1.34,1a20.07,20.07,0,0,1-5.59,2.5c-1.19.36-2.39.65-3.58,1a3.06,3.06,0,0,0-1,.55c-.93.78-1.83,1.6-2.74,2.41l-.45-1c-1.12.37-2.24.77-3.38,1.11-2.15.63-4.25,1.43-6.39,2.07-1.29.39-2.57.86-3.88,1.2s-2.3.67-3.43,1.08a3.23,3.23,0,0,1-2,0c-.51-.17-1-.07-1.51-.27s-1.16-.61-1.76-.93h-3.23c.26,1.25.76,2.4.95,3.67.21,1.44.47,2.88.76,4.31a9.8,9.8,0,0,1,.15,3.27,31.18,31.18,0,0,1-1.07,5c-.32,1-.67,2.07-.92,3.13a6.73,6.73,0,0,1-1.6,2.83c-.23.25-.47.47-.72.73h-1.21a14,14,0,0,0-2.23-1.29,5,5,0,0,1-3.08-2.54l-1.78.62c-.2.42-.4.84-.59,1.26-1,2.24-2.09,4.47-3.12,6.71-.18.38-.28.8-.45,1.19a9.38,9.38,0,0,1-3,3.92l.28,1.19c1.54,1.19,3.27,2,4.73,3.22a43.06,43.06,0,0,1,3.38,3.23,16.65,16.65,0,0,1,1.87,2.6,8.87,8.87,0,0,1,1.35,3.06c.16.84.47,1.64.69,2.46a19.17,19.17,0,0,1,.65,2.72c.13,1,.73,1.86.61,2.89a2.53,2.53,0,0,1,.24,1.64,2.43,2.43,0,0,1-.69,1.72,8.44,8.44,0,0,0-.8,1c0,1.82.14,3.62,0,5.4-.4,4.05-.11,8.1-.23,12.15a6.62,6.62,0,0,1-.24,1.14c-.07.35.1.7-.18,1.07-.14.18,0,.59.06.9s.12.45.19.72l.81.49a7.55,7.55,0,0,0,1.72-.49c.63-.37,1.36-.27,2-.65a10.26,10.26,0,0,1,2.1-.65c.66-.21,1.31-.45,2-.68,1.32-.44,2.64-.88,4-1.29.95-.29,1.92-.57,2.86-.93a21.17,21.17,0,0,1,2.85-.95c1.37-.32,2.65-.88,4-1.25.82-.22,1.62-.52,2.45-.72a3.23,3.23,0,0,0,1.93-1.23c.25-1.55-.4-2.91-.78-4.31s-1.08-3-.94-4.62c.06-.64-.34-1.22-.27-1.89a2.87,2.87,0,0,0-.2-1.79c-.16-.28,0-.74,0-1.11s-.2-.67-.23-1a3.88,3.88,0,0,0-.24-1.41c-.2-.4,0-.9-.22-1.4a9.19,9.19,0,0,1-.31-2.25c-.07-.55-.17-1.1-.24-1.65s.13-1.13-.24-1.66c-.1-.13,0-.4,0-.61,0-1.54,0-3.08,0-4.62a8.23,8.23,0,0,1,.24-1.28,5.87,5.87,0,0,0-.57-2.64,3.75,3.75,0,0,1-.18-.92,46,46,0,0,1,0-5.12c.16-1.55,0-3.13.26-4.64s.09-2.78.2-4.16c.05-.59.2-1.18.24-1.77s-.06-1.26,0-1.87-.3-.91-.28-1.4,0-1,0-1.5a5.73,5.73,0,0,1,.73-2.25c.79,1.56,1.46,2.9,2.14,4.26.06-.06.12-.09.12-.12-.18-1.48.37-2.92.27-4.4a4.33,4.33,0,0,1,.23-.89,6.44,6.44,0,0,0,0-.88,10.84,10.84,0,0,1,2.11-2.47l2.31,2.31c.11.77.26,1.52.31,2.27s0,1.59,0,2.38c0,.51.18,1,.23,1.52s-.12,1.06.26,1.52a8.6,8.6,0,0,0,.28,2.52,8.89,8.89,0,0,0,.4,2.32,6.15,6.15,0,0,1,.07,1c.05.31.21.6.24.9a28.21,28.21,0,0,1,.51,3.54c.38.5,0,1.19.3,1.62s.07,1.05.2,1.55c.28,1.08.32,2.2.54,3.28a10.06,10.06,0,0,0,.24,1.52c.19.52.07,1.07.25,1.52s.07,1.07.25,1.52.09,1,.24,1.41c.39,1.16.33,2.4.7,3.57a13,13,0,0,1,.28,2.27c.05.38.19.76.24,1.15a6.31,6.31,0,0,0,.22,1c.21.76.15,1.59.3,2.38a40.73,40.73,0,0,1,.26,5.52,7.71,7.71,0,0,0,.27,1.51,12.24,12.24,0,0,0,.56,1.39,15.1,15.1,0,0,1,1.41,4.92,3.58,3.58,0,0,0,.28.9l1,.95h.25c.55,0,1.09,0,1.63,0a4.62,4.62,0,0,0,1.39-.25c.67-.27,1.43,0,2-.29.72-.31,1.41,0,2-.22a10,10,0,0,1,2.78-.24,9.76,9.76,0,0,0,1.31-.29l1-1.14c.56-4.05.28-8,.32-11.9a25.43,25.43,0,0,0,.29-2.9,10.61,10.61,0,0,1,0-2.87,9.6,9.6,0,0,0,.2-1.77c0-.61.32-1.14.29-1.78a6.06,6.06,0,0,1,.35-1.61c.83.13.62.92.84,1.4a4.44,4.44,0,0,1,.27,1.51c0,.54,0,1.08,0,1.62v1.77a4.8,4.8,0,0,0,2.13,2.54l-1.43-2.93c.79-.38,1.46,0,2.26.15l.79,1.08v4.66L403.42,417v.85l2.08-.81s.1.07.1.1c-.06,1.6.45,3.16.28,4.76,0,.13-.06.3,0,.37.44.52.15,1.17.32,1.74a3.79,3.79,0,0,0,2.15,2.53c1.08,0,2.29.05,3.5,0a3.8,3.8,0,0,1,2,.51l1,.5a15.79,15.79,0,0,1,2.51-1.11c.11,0,.21-.14.31-.13a34.25,34.25,0,0,0,3.65-.25c7.58,0,15.17,0,22.75,0,2.93,0,5.84-.46,8.77-.27,2.57-.53,5.18-.13,7.77-.24.91,0,1.83,0,2.75,0a8.9,8.9,0,0,1,2.48.05,10,10,0,0,0,2.54.19,17.16,17.16,0,0,1,2.49,0,22.87,22.87,0,0,1,3.95.71c.15.06.34,0,.5,0a4.36,4.36,0,0,1,1.52.55c.79.56,1.66,1,2.53,1.5a4.26,4.26,0,0,1,3.18-.79,12.47,12.47,0,0,1,2.11.64,17.32,17.32,0,0,0,3.18.87l-.27.62a11.59,11.59,0,0,1-4.61-.17c-.35,1.1-1.18,2-1.36,3.14,1.39.35,2.7.72,4,1a16,16,0,0,0,2.74.63v.75l-.47.27c-.12-.07-.29-.26-.45-.25a17.66,17.66,0,0,1-2.9-.26,10.48,10.48,0,0,1-2.15-.23c-.64-.2-1.39.17-2-.27-.05,0-.16,0-.25,0-1.34-.08-2.68-.14-4-.26a8.89,8.89,0,0,0-1.64-.25,7.17,7.17,0,0,1-1.66-.19,22.14,22.14,0,0,0-3.36,0,1.07,1.07,0,0,0-.33.11,7.74,7.74,0,0,1-3.37.65,10.32,10.32,0,0,0-1.52.22,6.14,6.14,0,0,0-1.49,0c-1.13.4-2.28.05-3.4.24-2,.33-4,0-6,.29-1.61.22-3.19.08-4.78.19-1.3.09-2.6.2-3.9.24a29.44,29.44,0,0,0-4,.05c-2.31.39-4.62,0-6.9.23-4.34.45-8.69.11-13,.23-2.53.53-5.11,0-7.64.3-1.81.21-3.6.13-5.4.2a3.3,3.3,0,0,0-3.1,3,30.25,30.25,0,0,1-.74,4.44,19.29,19.29,0,0,1-2.42,5.38,20.35,20.35,0,0,1-3.66,4.08,14.76,14.76,0,0,1-3.51,2.35,22.85,22.85,0,0,0-2.29,1.35c-1.54.47-2.64-.27-3.76-.7-1.58-.6-3.17-1.19-4.78-1.73-.07,0-.12-.12-.2-.2-.42.76.49,1.46,0,2.23h-.53a21.58,21.58,0,0,1-3.1-5.82,4.47,4.47,0,0,0-.33-.61c-1-1.82-1.69-3.81-2.61-5.68-.33-.65-.6-1.32-1-2a3.12,3.12,0,0,0-1.24-1.12c-1.49-.25-2.87.46-4.31.85-1.09.29-2.16.63-3.26.9s-2.05.67-3.09,1c-1.19.35-2.39.65-3.58,1s-2.41.85-3.64,1.14c-1.56.37-3.05.91-4.57,1.37-2.29.69-4.55,1.48-6.8,2.3a9.72,9.72,0,0,0-2.23,1.23c-1.38,1-2.87,1.77-4.28,2.73-.36.89.52,1.71.2,2.62-.35.45-.66.93-1,1.34s-.91.83-1.41,1.27c-.69-.07-.71-.87-1.17-1.24-.55.34-.58,1-.77,1.71-.81-1.08-1-2.25-1.55-3.31l-9.31,6.42V460.9c-.62-.18-1,.16-1.38.4a35.43,35.43,0,0,1-3.26,2.09,6,6,0,0,1-3.33.66,11.61,11.61,0,0,1,2.19-2.58c.61-.65,1.16-1.37,1.78-2a35.44,35.44,0,0,1,3.21-2.77c1.85-1.52,3.85-2.81,5.76-4.22a21.09,21.09,0,0,0,3.24-3,7.86,7.86,0,0,0,1.88-3.34c0-.15.14-.29.14-.44a23.65,23.65,0,0,0,0-3.86c-.18-1.11-.13-2.19-.21-3.28a7.21,7.21,0,0,1-.26-1.4,2.19,2.19,0,0,0-.2-1.29c-.16-.29,0-.73,0-1.1s-.21-.6-.23-.9c-.1-1.13-1-4.52-1.39-6.3s-1.25-3.17-1.62-4.83c-1-1.56-1.59-3.36-2.64-4.92-.56-.83-1-1.74-1.58-2.59s-1.21-1.66-1.81-2.5a33.76,33.76,0,0,0-3.7-4,29.55,29.55,0,0,0-5-3.9A35.56,35.56,0,0,0,311.9,403a20.68,20.68,0,0,0-3.07-1.31c-1-.33-2.05-.74-3-1.16-1.31-.57-2.64-1.09-4-1.57-1.49-.53-2.92-1.21-4.45-1.65-1.21-.35-2.36-.93-3.54-1.39-1.4-.54-2.82-1.05-4.21-1.6a4.71,4.71,0,0,1-2.53-2.85,4.36,4.36,0,0,1,.15-2.88,28,28,0,0,1,1.44-3.9,10.53,10.53,0,0,1,1.76-2.76,5.25,5.25,0,0,1,2.82-1.63,8.71,8.71,0,0,1,2-.22,23.4,23.4,0,0,1,2.37,0,10.78,10.78,0,0,1,2.81.45.14.14,0,0,0,.11,0c.83-.18,1.59.27,2.39.26a2.29,2.29,0,0,0,.41-1.59c0-.67.16-1.34.23-2s-.17-1.31.25-1.9c0,0,0-.08,0-.12.08-1.3.15-2.6.25-3.9.05-.59.19-1.17.24-1.77a8.37,8.37,0,0,1,0-1.74,15.66,15.66,0,0,0,.24-1.9c.08-.57.37-1.09.5-1.67a7.2,7.2,0,0,1,.73-1.69,9.87,9.87,0,0,1,1.43-2,23.37,23.37,0,0,1,5.64-4.19c1.4-.8,2.66-1.82,4-2.68a36.45,36.45,0,0,1,3.52-2.07c.76-.37,1.44-.89,2.23-1.25a13.07,13.07,0,0,1,4.64-1.48c.6-.54,1.39-.11,2.09-.38a7,7,0,0,1,2.07-.12,5.36,5.36,0,0,1,1.78.24c.57.15,1.23-.2,1.77.26a7.89,7.89,0,0,1,2.67.5,14.47,14.47,0,0,1,3.49,1.22,5.6,5.6,0,0,0,2.28.57,10.59,10.59,0,0,1,5.16,1.39,5.28,5.28,0,0,1,2,1.73c.36.63,1.13,1,1.23,2,1-.73,1.33-1.85,2.24-2.56l-2.86-1.78a5.12,5.12,0,0,1,.41-.54c1.14-1.07,2.23-2.2,3.44-3.17a47.65,47.65,0,0,1,4.07-2.83c2.24-1.44,4.51-2.82,6.77-4.21,1.76-1.08,3.39-2.38,5.24-3.32a37.62,37.62,0,0,1,3.61-2.78,39,39,0,0,1,3.69-2.81,18.08,18.08,0,0,0,1.67-1.41,45.58,45.58,0,0,0,5.54-5.31,29,29,0,0,0,2.91-3.76,15,15,0,0,1,1.71-2.43Zm1.44,126.25,5-5.49v-1.23a2.35,2.35,0,0,0-1.33-.54c-1.42,0-2.83,0-4.24,0a2.13,2.13,0,0,0-1.65.64,31.75,31.75,0,0,0,.22,4,3.85,3.85,0,0,0,1.18,2.39,3,3,0,0,1,.26.23Zm-21.23-62.06,1.55,1.56h.25l1.23-1.22a56.74,56.74,0,0,0-.58-8.09c-.64,1.27-1.24,2.44-1.83,3.6a2.46,2.46,0,0,0-.32.73C371.51,381.31,371.42,382.51,371.34,383.52Zm-44.13-5.78c.69.36,1.32.74,2,1a3,3,0,0,0,2.27.47c-.51-.94-.57-2-1.61-2.72l-2.92.36Z"/><path d="M257.63,535.08a2.26,2.26,0,0,0,1.47-1.42,5.69,5.69,0,0,0,1-3.2c.52-1,.14-2,.46-3.05a3.9,3.9,0,0,1,3.31-3.08,3.52,3.52,0,0,0,.54-.17,17.07,17.07,0,0,0,.61-1.9c.15-.75.89-1.1,1.08-1.8,1.09-.67,2-1.61,3.34-1.89,1-.21,2-.56,3.07-.72A32.89,32.89,0,0,0,276,517a34.25,34.25,0,0,0,3.51-1.15c1.15-.45,2.33-.79,3.49-1.23,2.16-.83,4.28-1.74,6.39-2.67,1.31-.57,2.56-1.27,3.86-1.84a27.29,27.29,0,0,0,3.15-1.46c1.93-1.15,4-2.07,5.89-3.3,1.37-.88,2.8-1.69,4.17-2.57,1.1-.71,2.11-1.55,3.16-2.33,1.76-1.31,3.41-2.76,5.22-4a19.79,19.79,0,0,0,1.85-1.58c.64-.56,1.25-1.16,1.94-1.67a37.37,37.37,0,0,0,4.55-4.07,23.31,23.31,0,0,0,2.23-2.83c.6-.84,1.19-1.68,1.85-2.47a6.57,6.57,0,0,1,1.15-.88c1.4,1.14,1.26,2.65,1.24,4-.55,1.76-1.78,2.91-2.6,4.34-.58,1-1.29,2-1.89,3-.69,1.16-1.36,2.35-2,3.54a5,5,0,0,0-.76,2.81c.05.54,0,1.08,0,1.59a32.21,32.21,0,0,0-3.14,3.61c-.59.77-1.32,1.44-1.92,2.21-.74,1-1.64,1.77-2.32,2.78-.51.73-1.19,1.33-1.75,2-1.12,1.42-2.42,2.7-3.47,4.18-.53.76-1.23,1.41-1.83,2.12s-1.25,1.56-1.82,2.27l.5,2.05.69.39c0,.09,0,.16,0,.2a7.71,7.71,0,0,0-1,1.33c-.47,1-1.44,1.34-2.22,1.88a44.91,44.91,0,0,1-3.94,2.24l-4,2.21a4.3,4.3,0,0,1-.64.18,10.06,10.06,0,0,1-5.29,2.7,17,17,0,0,1-3.17.5c-.47,0-.93.19-1.4.23s-1-.16-1.34,0c-.5.33-1,.07-1.42.22-1.55.53-3.15.83-4.71,1.31a38.38,38.38,0,0,1-4.13,1.2c-1.45.28-2.88.67-4.32,1-1,.27-2,.52-3.08.71s-2,.41-3,.62c0,0,0,.08,0,.12h-2.5c0-.07-.05-.19-.09-.2a3.67,3.67,0,0,1-2.86-1.87c-.18-.24-.37-.45-.55-.68Z"/><path d="M333.48,468.83h.77c0,.07.11.13.12.2.12,1.14-.44,2.16-.57,3.26-.45.39.12,1.08-.42,1.45a14.53,14.53,0,0,1-.55,2.55l-1.54-.5Z"/><path d="M400.29,401.84l-.36,0v-7.17c.4-.1.79-.2,1.1.21C401.82,397.3,401.2,399.59,400.29,401.84Z"/></svg>